<?xml version="1.0" standalone="no"?>
<!DOCTYPE svg PUBLIC "-//W3C//DTD SVG 20010904//EN"
 "http://www.w3.org/TR/2001/REC-SVG-20010904/DTD/svg10.dtd">
<svg version="1.0" xmlns="http://www.w3.org/2000/svg"
 width="1000.000000pt" height="586.000000pt" viewBox="0 0 1000.000000 586.000000"
 preserveAspectRatio="xMidYMid meet">
<metadata>
Created by potrace 1.15, written by Peter Selinger 2001-2017
</metadata>
<g transform="translate(0.000000,586.000000) scale(0.100000,-0.100000)"
fill="#000000" stroke="none">
<path d="M0 4196 c0 -1322 3 -1665 13 -1669 9 -4 9 -6 0 -6 -10 -1 -13 -94
-13 -430 l0 -430 53 -4 52 -3 -52 -2 -52 -2 -1 -355 0 -355 32 0 c21 0 28 -3
20 -8 -7 -5 -10 -16 -7 -24 4 -9 2 -19 -4 -22 -5 -4 -12 3 -16 14 -10 33 -20
23 -23 -25 l-2 -44 125 2 c96 1 125 5 125 15 0 9 5 10 19 2 23 -12 42 -13 23
-1 -11 6 -13 45 -13 172 1 90 6 168 11 173 7 7 10 -39 10 -127 0 -75 4 -137 8
-137 4 0 6 -16 4 -35 l-4 -35 53 0 c30 0 59 4 64 8 17 12 11 37 -10 44 -15 5
-13 6 11 7 l31 1 7 88 c4 48 9 114 13 147 10 93 21 39 22 -102 l1 -123 50 0
50 0 1 63 c1 70 6 67 11 -8 3 -38 8 -51 21 -53 15 -3 17 8 17 107 0 70 4 112
11 117 21 13 29 -21 29 -124 l0 -103 28 4 27 4 -3 97 c-2 66 1 102 9 112 21
26 29 -4 29 -113 0 -86 3 -103 15 -103 22 0 30 29 15 53 -9 15 -10 22 -1 25 6
2 12 31 13 70 2 62 2 60 8 -28 l6 -95 2 92 c2 87 12 122 26 87 3 -9 6 -52 6
-97 0 -45 4 -88 9 -95 4 -7 6 70 4 172 -4 159 -2 186 10 186 15 0 19 -26 33
-265 l6 -100 62 1 c33 1 66 2 73 3 6 1 14 13 16 29 l4 27 2 -27 1 -28 113 -1
c61 0 178 -1 260 -2 81 -1 147 0 147 3 0 3 -9 52 -19 110 -11 57 -17 108 -15
111 4 6 44 1 44 -6 0 -2 9 -47 20 -100 24 -116 23 -105 5 -105 -8 0 -15 -4
-15 -9 0 -9 80 -21 142 -21 20 0 38 -6 41 -12 3 -10 9 -9 22 3 15 14 20 15 44
3 28 -14 201 -21 354 -15 69 3 69 3 63 29 -3 15 -13 68 -22 117 -8 50 -24 122
-34 160 -9 39 -21 98 -25 132 l-7 61 36 -1 c20 -1 36 -5 36 -10 0 -5 7 -4 15
3 18 15 18 15 33 -30 l11 -35 -2 35 -2 34 58 1 c49 1 57 -2 57 -17 0 -10 7
-35 16 -56 9 -20 16 -49 15 -63 -1 -21 5 -28 23 -33 19 -5 27 -15 32 -44 3
-20 12 -46 19 -57 7 -11 16 -41 20 -65 15 -100 24 -117 64 -124 69 -11 171 -6
203 10 24 12 53 15 140 11 87 -4 112 -2 123 10 11 11 15 11 15 2 0 -8 3 -9 9
-4 6 6 12 42 14 80 l3 70 2 -77 c1 -57 6 -78 15 -78 20 0 36 39 40 95 3 43 4
41 5 -17 2 -66 16 -94 33 -67 8 12 11 12 19 -1 8 -11 10 4 10 55 0 39 2 122 6
186 l6 117 31 5 c18 3 35 2 39 -2 3 -3 8 -109 10 -236 l3 -230 149 0 c123 0
152 3 167 16 11 9 19 18 19 20 0 3 -58 4 -129 4 -71 0 -132 3 -135 6 -14 14 7
65 32 77 27 12 170 16 233 6 31 -5 35 -9 33 -35 -1 -16 -7 -36 -14 -44 -10
-12 -9 -16 1 -19 26 -9 109 -11 109 -3 0 4 8 4 18 -1 23 -13 152 -22 371 -28
168 -5 183 -4 177 11 -3 9 -3 22 1 28 4 7 9 2 13 -13 5 -22 12 -25 58 -27 29
-2 51 1 49 5 -3 4 -1 36 3 72 l7 65 2 -72 1 -73 55 0 c50 0 55 2 56 23 1 12 5
94 9 182 l6 160 2 -181 c1 -99 5 -183 8 -187 10 -9 34 4 27 16 -3 5 3 16 13
24 18 13 18 15 2 24 -15 9 -18 24 -16 111 2 70 6 102 15 105 15 6 18 63 3 63
-13 0 -32 48 -25 60 3 5 17 4 30 -2 18 -8 28 -8 39 1 10 8 16 9 21 1 3 -5 16
-10 27 -10 21 0 21 -2 14 -162 -4 -90 -12 -168 -18 -175 -7 -9 -7 -13 1 -13 6
0 10 -10 8 -23 -2 -18 3 -22 28 -22 30 0 42 22 20 37 -5 4 1 8 15 8 l25 0 -22
18 c-20 15 -21 25 -19 105 1 60 6 91 15 97 11 6 11 9 0 13 -8 3 -4 6 9 6 18 1
22 7 22 31 0 20 -5 30 -15 30 -9 0 -12 6 -9 15 4 10 -4 19 -22 26 -38 15 -15
23 29 11 24 -7 39 -6 46 1 8 8 11 8 11 -1 0 -6 23 -12 58 -14 l57 -3 0 -35 0
-35 -62 -3 c-45 -2 -63 -7 -63 -17 0 -7 -6 -16 -12 -18 -7 -3 -3 -6 9 -6 12
-1 25 4 28 9 3 6 23 10 45 10 44 0 49 -7 60 -90 l7 -55 2 62 c1 51 5 64 20 73
47 25 51 17 51 -100 l0 -110 27 0 c23 0 25 2 11 12 -14 11 -15 26 -10 97 5 54
12 86 20 89 9 3 12 -21 12 -97 0 -74 3 -101 13 -101 9 0 12 26 12 97 0 98 0
98 25 98 25 0 25 -1 28 -96 l3 -95 72 -2 c39 -2 89 0 109 3 l38 7 -15 28 c-8
16 -15 48 -15 70 0 34 3 41 18 38 14 -3 18 -16 20 -76 l3 -72 158 0 c135 0
160 -2 165 -16 3 -8 10 -13 14 -10 5 3 9 -18 10 -47 l1 -52 -174 3 c-168 3
-175 2 -175 -17 0 -26 11 -29 113 -23 l87 5 0 -37 c0 -37 -7 -44 -28 -26 -6 6
-10 7 -7 4 6 -9 -14 -34 -27 -34 -6 0 -8 7 -4 15 3 9 0 15 -8 15 -8 0 -17 -6
-19 -12 -3 -7 -6 -8 -6 -2 -1 6 -33 9 -91 8 -49 -1 -90 2 -90 7 0 5 -3 9 -7 9
-5 0 -9 -39 -10 -88 -1 -48 -2 -93 -2 -100 -1 -9 -12 -12 -33 -10 -30 3 -33 6
-30 32 3 26 1 28 -20 23 -12 -4 -48 -7 -79 -7 -55 0 -57 -1 -61 -30 l-5 -30
86 -1 c148 -2 145 -1 145 -29 1 -20 -5 -26 -26 -28 -21 -3 -27 2 -31 20 l-4
23 -2 -22 c-1 -23 -3 -23 -136 -23 l-135 0 0 -30 c0 -16 -4 -30 -10 -30 -5 0
-10 11 -10 25 0 14 -4 25 -9 25 -5 0 -9 -16 -9 -36 0 -19 -3 -38 -6 -41 -3 -4
-6 15 -6 40 0 35 -4 47 -15 47 -10 0 -15 10 -15 30 0 20 5 30 15 30 12 0 15
17 15 89 0 49 3 103 6 120 6 29 9 31 50 31 40 0 44 2 44 25 0 24 -3 25 -55 25
-42 0 -55 -3 -55 -15 0 -8 -4 -15 -10 -15 -5 0 -10 -18 -10 -40 0 -22 -4 -40
-10 -40 -5 0 -10 -13 -10 -29 0 -34 -12 -38 -102 -33 -56 4 -58 5 -58 32 l0
28 71 0 c38 0 73 3 76 6 4 3 -24 6 -60 6 l-67 0 0 29 c0 17 5 33 10 36 6 3 10
13 10 21 0 11 -18 14 -85 14 -71 0 -83 -2 -79 -15 4 -8 2 -15 -4 -15 -12 0
-21 -55 -12 -70 4 -6 35 -11 68 -11 62 -1 62 -1 62 -30 0 -26 -4 -29 -30 -29
-27 0 -30 -3 -30 -31 0 -24 -4 -30 -17 -27 -11 2 -19 14 -21 31 -3 23 -8 27
-35 28 -18 1 -38 1 -44 0 -13 -2 -17 19 -13 73 1 18 -2 26 -9 22 -6 -4 -11
-14 -11 -22 0 -9 -11 -14 -30 -14 -20 0 -30 5 -30 15 0 10 -11 15 -35 15 -24
0 -35 -5 -35 -15 0 -11 -11 -15 -40 -15 -22 0 -40 5 -40 10 0 6 16 10 35 10
40 0 49 25 13 39 -18 6 -19 9 -5 14 10 4 17 13 17 22 0 12 -15 15 -86 15 l-86
0 7 -37 c9 -47 8 -47 50 -45 30 1 35 -2 36 -21 6 -106 6 -107 98 -107 l79 0
-4 46 c-3 44 -2 45 24 42 25 -3 28 -8 34 -58 3 -30 4 -58 2 -62 -6 -10 -82
-10 -241 -2 -117 7 -120 7 -131 33 -7 16 -10 55 -8 91 6 91 -1 120 -28 120
-22 0 -22 -1 -18 -150 3 -106 1 -150 -7 -150 -11 0 -15 65 -15 222 1 50 -3 78
-10 78 -8 0 -9 -30 -5 -97 10 -145 10 -203 0 -203 -14 0 -20 54 -22 183 -1 64
-6 117 -11 117 -5 0 -5 -67 -2 -149 l7 -149 -34 2 -34 2 -3 147 c-1 86 -7 147
-12 147 -6 0 -7 -56 -3 -150 l6 -150 -25 0 c-25 0 -25 2 -31 98 -4 53 -7 121
-7 150 0 30 -4 52 -11 52 -5 0 -8 -3 -6 -7 3 -5 7 -71 8 -148 l4 -140 -28 -2
c-15 -1 -30 3 -32 10 -2 7 -6 72 -8 145 -4 94 -2 132 7 133 6 1 -6 5 -28 10
-50 12 -63 1 -71 -59 -4 -26 -14 -72 -24 -102 -34 -103 -39 -143 -37 -317 1
-186 3 -192 53 -193 16 0 23 -7 25 -27 4 -28 4 -27 21 11 21 47 21 43 -2 49
-17 4 -19 18 -20 191 l-1 186 35 0 35 0 1 -142 c1 -79 5 -156 9 -173 l8 -30 1
33 c1 30 3 32 36 32 19 0 35 -3 35 -7 0 -5 47 -6 104 -5 94 3 105 2 109 -15 4
-16 5 -16 6 0 1 23 71 25 71 2 0 -21 18 -19 23 2 3 15 6 14 15 -7 11 -25 12
-8 16 162 1 14 4 30 8 34 4 4 3 13 -3 21 -6 7 -9 24 -7 38 5 24 3 25 -38 25
-35 0 -44 4 -44 18 0 16 13 17 182 12 132 -4 182 -8 186 -17 3 -10 -28 -13
-132 -13 l-136 0 1 -27 c2 -25 2 -25 6 -5 3 13 10 21 16 19 15 -5 22 -177 7
-177 -5 0 -11 -8 -12 -17 0 -10 -4 2 -8 27 -6 36 -7 27 -8 -45 0 -50 3 -82 7
-71 7 17 8 17 24 2 9 -10 17 -13 17 -7 0 6 7 8 15 5 13 -5 15 6 14 67 -1 41
-3 66 -6 57 -11 -41 -18 -12 -19 72 0 92 12 124 19 48 l4 -43 1 43 2 42 45 -2
c42 -1 45 -3 45 -30 0 -31 -16 -39 -22 -10 -2 9 -7 -38 -12 -105 -4 -68 -5
-127 -2 -131 3 -5 15 -8 28 -7 25 2 24 -3 27 242 0 39 2 42 27 39 14 -2 30 -9
36 -17 8 -11 9 -10 4 4 -4 12 -2 17 6 15 14 -5 19 -119 7 -177 -4 -22 -7 -27
-8 -13 0 12 -5 22 -11 22 -5 0 -10 -10 -10 -22 0 -19 -2 -20 -10 -8 -5 8 -10
26 -11 40 -1 14 -5 1 -8 -28 -4 -30 -4 -75 0 -100 3 -26 7 -37 8 -24 0 14 5
21 12 16 6 -3 9 -22 7 -40 -3 -24 0 -34 9 -34 8 0 13 6 12 12 -1 7 1 37 6 66
l8 52 193 0 193 0 4 -67 3 -68 2 73 c1 44 -2 72 -8 72 -6 0 -15 10 -20 23 -7
18 -9 19 -9 3 -1 -12 -6 -16 -17 -12 -9 3 -27 6 -40 6 -16 0 -24 6 -25 18 0 9
-3 12 -5 6 -3 -7 -14 -10 -24 -7 -16 4 -20 16 -23 77 l-3 71 -2 -74 -2 -73
-31 4 c-24 4 -30 2 -26 -11 3 -13 -3 -16 -33 -13 -20 2 -53 -1 -73 -6 -30 -8
-37 -8 -37 4 0 8 4 14 8 14 5 0 5 24 1 53 -4 28 -8 66 -8 82 l-1 30 177 -3
c98 -2 179 -5 180 -6 1 -1 3 -33 4 -71 3 -111 -12 -104 222 -102 187 1 202 0
199 -16 -3 -15 0 -16 17 -5 18 11 19 14 5 29 -12 14 -13 18 -2 23 10 5 10 7 0
12 -28 13 3 24 69 24 67 0 69 -1 69 -25 0 -14 0 -28 0 -32 1 -5 -16 -11 -37
-14 l-38 -6 43 -2 c35 -1 45 -5 49 -21 3 -11 10 -20 17 -21 6 -1 22 -2 36 -2
18 -2 24 -7 22 -20 -4 -23 18 -30 59 -19 32 8 49 37 22 37 -7 0 -20 10 -28 23
-13 18 -25 22 -71 22 -30 0 -53 4 -50 9 3 4 37 6 76 3 l70 -5 0 37 c0 35 13
49 23 24 4 -10 6 -10 6 0 1 6 7 12 15 12 14 0 24 -51 32 -168 2 -35 11 -76 19
-90 l14 -27 1 38 c0 21 4 36 8 33 5 -3 5 -27 1 -53 -4 -26 -8 -54 -8 -60 -1
-10 420 -13 2074 -13 l2075 0 -2 1103 c-2 606 -7 1111 -11 1122 -7 16 -7 17 2
5 8 -11 11 278 11 1023 l0 1037 -30 0 c-28 0 -30 3 -30 36 0 19 4 33 9 30 5
-3 11 1 15 9 3 8 12 15 21 15 8 0 15 5 15 10 0 6 -22 10 -50 10 -27 0 -50 5
-50 10 0 6 23 10 50 10 47 0 50 2 50 25 0 20 -5 25 -25 26 -14 1 -29 3 -35 4
-5 1 -19 3 -30 4 -11 0 -20 8 -20 16 0 12 13 15 55 15 l55 0 0 50 c0 49 -1 50
-30 50 -16 0 -30 4 -30 8 0 5 14 7 30 4 27 -4 30 -1 30 22 0 19 -5 26 -20 26
-13 0 -20 7 -20 20 0 13 7 20 20 20 18 0 20 7 20 65 l0 65 -33 0 c-26 0 -33 4
-33 20 0 15 5 19 21 14 11 -4 26 -11 33 -16 9 -8 12 -5 12 11 0 18 -6 21 -40
21 -22 0 -40 -4 -40 -10 0 -5 -8 -10 -17 -10 -15 0 -16 2 -3 10 10 6 -31 10
-125 12 -136 4 -135 4 43 6 l182 2 0 137 c0 75 -2 134 -4 132 -3 -3 -6 -51 -7
-107 -1 -99 -2 -102 -24 -102 -17 0 -22 5 -21 18 2 9 -2 20 -7 24 -7 4 -10 60
-9 155 1 81 1 199 2 262 0 112 0 114 19 95 10 -10 14 -22 9 -25 -5 -3 -3 -9 6
-12 10 -4 16 -1 16 8 0 8 5 15 10 15 6 0 10 49 10 126 l0 127 -37 -7 c-21 -4
-80 -10 -132 -13 -74 -5 -92 -3 -86 6 6 10 3 11 -13 2 -33 -18 -38 -33 -8 -25
15 3 26 2 26 -4 0 -19 -94 -32 -254 -34 -158 -3 -159 -3 -162 19 -4 23 -3 23
124 24 209 1 281 8 198 18 -76 9 -72 31 7 31 35 0 125 3 200 7 l137 6 0 39 0
38 -5000 0 -5000 0 0 -1664z m4953 1471 c-5 -23 -8 -24 -125 -31 -67 -3 -145
-6 -175 -6 -50 0 -53 2 -53 25 0 27 -1 27 241 33 l116 3 -4 -24z m-413 -14
c25 -3 39 -8 33 -10 -18 -7 -16 -21 5 -27 9 -3 -54 -3 -140 0 -139 5 -158 3
-158 -10 0 -12 -10 -16 -35 -16 -24 0 -35 5 -35 15 0 10 -11 15 -35 15 -31 0
-35 3 -35 26 l0 26 178 -6 c97 -4 197 -9 222 -13z m3535 2 c209 -21 205 -20
205 -51 0 -26 -1 -26 -52 -20 -29 3 -131 11 -225 18 l-173 12 0 25 c0 23 4 26
43 29 23 2 114 -4 202 -13z m-1357 -34 c-3 -18 0 -27 5 -24 5 3 8 0 5 -8 -3
-9 -17 -13 -37 -12 -17 1 -29 -2 -26 -7 3 -4 -5 -10 -18 -14 -32 -8 -45 -6
-22 4 l20 9 -20 0 c-30 1 -107 -24 -99 -32 4 -4 3 -7 -2 -7 -5 -1 -52 -9 -103
-20 l-95 -18 -18 20 c-10 12 -18 26 -18 33 0 7 57 25 138 43 75 18 164 38 197
46 93 22 98 21 93 -13z m-1790 -7 c22 -5 30 -11 29 -26 -1 -16 -7 -19 -28 -14
-50 10 -69 -2 -69 -45 0 -22 -5 -39 -11 -39 -6 0 -9 7 -5 15 3 9 0 15 -10 15
-10 0 -14 -6 -10 -15 3 -9 0 -15 -9 -15 -8 0 -15 7 -15 15 0 8 -4 15 -10 15
-5 0 -10 -9 -10 -20 0 -13 -5 -18 -14 -14 -8 3 -12 12 -9 20 3 8 -1 14 -11 14
-9 0 -16 -7 -16 -15 0 -8 -7 -15 -15 -15 -8 0 -14 6 -12 12 1 7 -8 14 -20 16
-13 2 -23 12 -25 25 -3 19 -8 22 -46 19 -40 -3 -43 -2 -33 16 12 22 51 36 51
19 0 -8 4 -7 9 2 10 15 71 6 83 -13 5 -7 8 -5 8 6 0 14 12 18 78 21 42 1 80 4
83 5 4 1 20 -1 37 -4z m4935 -331 c-3 -170 -6 -314 -8 -320 -3 -7 -9 -13 -15
-13 -8 0 -10 96 -8 320 3 284 5 320 19 320 14 0 15 -31 12 -307z m-979 291
c15 -6 16 -40 16 -315 -1 -297 -6 -345 -30 -286 -7 17 -9 18 -9 5 -1 -21 -31
-24 -50 -5 -11 10 -12 9 -6 -2 5 -9 3 -12 -6 -9 -11 4 -13 37 -11 179 2 96 5
175 7 177 1 1 14 -3 28 -9 16 -7 28 -23 32 -41 9 -37 11 -34 19 25 l7 47 -47
0 -47 0 6 68 c4 37 7 91 7 120 l0 52 34 0 c19 0 42 -3 50 -6z m-6067 -306 c-4
-161 -7 -303 -7 -315 0 -14 -6 -23 -15 -23 -13 0 -15 42 -15 315 l0 315 22 0
21 0 -6 -292z m6205 -5 c-2 -164 -7 -302 -12 -306 -4 -5 -17 -6 -29 -2 -21 6
-21 11 -21 266 0 200 3 259 13 260 10 0 10 2 0 6 -7 2 -13 20 -13 39 0 32 2
34 33 34 l32 0 -3 -297z m-7282 55 c0 -272 -8 -370 -29 -366 -14 3 -16 33 -16
268 0 146 3 273 7 283 4 9 14 17 23 17 13 0 15 -27 15 -202z m4880 187 c0 -12
13 -15 60 -15 53 0 60 -2 60 -20 0 -17 7 -20 45 -20 l45 0 2 -42 1 -43 4 42
c4 40 6 42 44 48 22 4 42 5 45 2 2 -2 7 -119 11 -261 l6 -256 -41 0 c-40 0
-41 1 -47 38 -10 58 -13 61 -14 10 l-1 -48 -38 0 c-36 0 -39 3 -49 38 l-10 37
-2 -37 c-1 -34 -4 -38 -28 -38 -37 0 -48 9 -66 50 l-15 35 -1 -42 c-1 -24 -5
-43 -9 -43 -9 0 -23 305 -21 450 l1 75 13 -73 c7 -41 17 -77 21 -80 4 -4 4 4
1 18 -4 14 -7 51 -7 83 0 44 -3 57 -15 57 -9 0 -15 9 -15 25 0 14 5 25 10 25
6 0 10 -7 10 -15z m-4437 -138 c-1 -78 -2 -206 -2 -285 -1 -128 -3 -143 -18
-140 -9 2 -18 9 -21 17 -3 10 0 12 12 8 9 -4 16 -2 16 3 0 6 -7 10 -15 10 -13
0 -15 36 -15 265 l0 265 23 0 c22 0 22 -1 20 -143z m952 -144 c7 -272 6 -283
-12 -283 -38 0 -44 30 -40 232 2 136 7 193 15 196 18 6 14 73 -5 94 -16 18
-16 18 1 12 12 -5 19 -1 23 15 3 12 7 20 8 19 2 -2 6 -130 10 -285z m4267 250
c3 -21 6 -147 7 -280 2 -240 2 -243 -18 -243 -21 0 -21 3 -21 280 0 232 2 280
14 280 9 0 15 -14 18 -37z m-1788 -4 c3 -17 5 -57 5 -88 -2 -51 -3 -53 -9 -21
-6 29 -7 26 -4 -15 2 -27 4 -63 4 -80 0 -20 3 -26 9 -17 10 16 21 -17 20 -58
0 -23 -1 -23 -10 -5 -8 19 -6 -63 7 -195 4 -40 2 -52 -6 -44 -14 14 -39 212
-59 457 -3 49 -4 90 -2 93 15 15 39 1 45 -27z m2313 -252 c2 -252 1 -267 -16
-267 -17 0 -18 14 -20 200 -3 224 6 343 23 337 8 -3 12 -85 13 -270z m-2687
244 c0 -10 3 -33 7 -51 5 -27 3 -32 -8 -25 -11 6 -12 5 -1 -6 9 -9 12 -66 12
-208 0 -107 -2 -192 -5 -189 -3 3 -6 50 -7 104 -2 139 -12 141 -19 4 -4 -87
-5 -56 -7 128 -1 160 1 241 8 237 6 -3 10 -2 10 4 0 5 -8 12 -17 14 -14 4 -12
5 5 6 15 1 22 -5 22 -18z m190 -18 c0 -5 9 -84 19 -178 11 -93 23 -205 26
-247 l7 -78 -44 0 -45 0 -12 193 c-6 105 -13 220 -15 255 l-4 62 34 0 c19 0
34 -3 34 -7z m-1255 -120 c-3 -54 -7 -163 -10 -243 -5 -156 -7 -159 -60 -146
l-23 6 -1 231 c-1 127 -4 235 -7 240 -3 5 20 9 50 9 l55 0 -4 -97z m2625 -558
c41 -3 163 0 270 6 208 12 307 9 183 -5 -66 -8 -73 -11 -73 -31 0 -25 -11 -26
-274 -41 -116 -7 -119 -7 -114 13 5 19 -1 21 -85 27 -49 3 -127 6 -171 6 -94
0 -126 7 -126 26 0 12 27 13 158 9 86 -3 191 -8 232 -10z m-4120 -80 c0 -8 -3
-15 -7 -15 -5 0 -95 -7 -202 -15 -107 -9 -201 -13 -208 -11 -7 3 -13 12 -13
20 0 11 19 16 73 20 125 11 159 12 260 14 80 2 97 -1 97 -13z m1843 -21 c37
-3 67 -10 67 -15 0 -5 -10 -7 -22 -5 -13 3 -42 7 -64 10 l-42 6 -6 -138 c-10
-222 -19 -305 -35 -310 -12 -4 -13 29 -8 222 l6 226 -39 0 c-22 0 -40 5 -40
11 0 7 19 9 58 5 31 -3 87 -8 125 -12z m-1038 -41 c1 -44 25 -446 28 -468 1
-5 -8 -11 -20 -13 -13 -2 -23 1 -23 7 0 6 7 8 15 5 19 -8 20 5 1 20 -10 8 -18
68 -30 226 -21 284 -24 258 24 269 3 0 5 -20 5 -46z m1761 22 c8 -7 10 -15 4
-17 -5 -2 -12 -98 -15 -218 -3 -118 -8 -226 -11 -239 -4 -19 -2 -22 11 -17 9
3 50 6 90 6 l73 0 7 47 c4 25 6 106 6 180 0 73 3 133 8 133 5 0 11 10 14 22
14 54 18 -4 11 -186 -4 -107 -11 -193 -15 -190 -5 3 -9 0 -9 -5 0 -6 6 -11 14
-11 20 0 26 67 26 273 0 99 3 178 6 175 5 -6 7 -404 1 -431 -1 -7 10 -12 28
-12 l30 0 3 190 c1 105 4 196 7 203 3 7 15 12 27 10 23 -3 23 -4 25 -203 l2
-200 30 -2 c29 -1 31 1 31 33 0 23 -5 34 -14 34 -10 0 -16 20 -21 75 -8 81 -4
95 20 75 13 -10 15 -9 15 9 0 12 -4 19 -10 16 -5 -3 -16 -2 -24 2 -19 11 -2
57 19 49 13 -4 15 9 15 84 0 90 0 90 26 90 l25 0 -2 -172 c-2 -151 -14 -325
-18 -260 0 13 -5 21 -10 18 -4 -3 -6 -17 -3 -31 4 -24 7 -25 87 -25 85 0 103
-7 102 -43 0 -21 -13 -10 -20 18 -4 17 -5 17 -6 -4 -1 -17 -5 -21 -17 -17 -9
3 -38 6 -65 6 -29 0 -48 4 -44 9 9 16 -6 19 -90 21 -95 1 -116 -1 -110 -11 3
-4 34 -6 70 -4 36 1 62 -1 60 -6 -3 -4 -153 -8 -333 -8 -199 -1 -321 3 -313 8
8 5 20 7 28 4 7 -3 13 -1 13 5 0 15 -32 24 -40 11 -6 -8 -9 -8 -14 0 -4 6 -12
8 -18 5 -7 -4 -8 -2 -4 4 4 7 2 12 -3 12 -6 0 -11 -4 -11 -10 0 -5 -7 -7 -16
-3 -9 3 -20 0 -25 -8 -7 -11 -9 -11 -9 -1 0 7 -4 10 -10 7 -15 -10 -12 -23 8
-28 9 -3 -5 -5 -33 -4 -27 0 -38 2 -22 4 16 3 27 11 27 20 0 9 -6 13 -14 10
-7 -3 -18 -1 -24 5 -8 8 -16 8 -27 -2 -11 -9 -18 -10 -29 -1 -9 7 -29 9 -55 5
-37 -6 -39 -8 -24 -20 10 -7 13 -14 8 -14 -13 0 -35 20 -35 32 0 4 11 8 25 8
l25 0 0 190 0 190 30 0 30 0 -4 -97 c-2 -54 -5 -100 -6 -103 -1 -3 -1 -22 0
-42 1 -32 -2 -38 -19 -38 -12 0 -21 -4 -21 -9 0 -5 7 -8 16 -7 9 0 19 -5 21
-11 3 -7 -2 -13 -11 -13 -9 0 -16 -4 -16 -10 0 -5 7 -10 15 -10 8 0 15 -9 15
-20 0 -11 7 -20 15 -20 13 0 15 27 16 183 1 234 0 221 27 225 18 3 22 10 22
39 0 21 4 33 11 31 9 -3 11 -72 10 -245 l-2 -240 25 4 c23 5 41 27 32 41 -2 4
-1 39 3 79 4 39 3 69 -1 67 -4 -3 -8 58 -8 135 0 87 4 141 10 141 6 0 10 7 10
15 0 8 9 15 19 15 18 0 19 -9 13 -245 l-5 -245 37 0 36 0 0 50 c0 28 -3 50 -7
50 -5 0 -8 67 -8 148 0 145 0 148 25 173 22 22 28 24 39 11 11 -11 13 -54 7
-222 l-7 -207 26 -5 25 -5 0 233 0 234 24 0 c16 0 23 5 22 15 -3 22 -16 31
-16 10 0 -14 -6 -16 -31 -11 -17 3 -38 6 -45 6 -8 0 -14 7 -14 16 0 15 10 16
81 10 48 -4 87 -12 95 -21z m3307 13 c19 0 27 -6 27 -19 0 -17 -9 -19 -87 -19
-49 0 -145 3 -215 7 -116 5 -128 8 -128 25 0 17 9 18 188 13 103 -3 199 -6
215 -7z m-4984 -53 c14 8 19 -36 26 -210 3 -82 8 -165 11 -182 5 -25 3 -33 -9
-33 -8 0 -17 -7 -21 -15 -11 -29 -23 -14 -21 28 1 23 -4 123 -11 222 -7 99
-13 196 -13 215 l0 35 14 -33 c8 -18 19 -31 24 -27z m533 3 l1 -53 6 50 c4 37
11 51 24 53 15 3 17 -7 19 -100 l2 -103 3 98 c2 53 8 97 13 97 6 0 10 -9 10
-20 0 -15 7 -20 26 -20 21 0 25 -4 21 -20 -4 -15 0 -20 14 -20 14 0 19 -7 19
-25 0 -18 4 -23 15 -19 10 4 15 0 15 -15 0 -13 -5 -19 -14 -15 -8 3 -17 1 -21
-5 -3 -7 2 -11 14 -11 18 0 21 -6 21 -49 0 -84 -11 -143 -26 -137 -10 4 -14
-4 -14 -30 0 -28 3 -35 15 -30 10 4 15 -1 15 -14 0 -11 -6 -20 -14 -20 -8 0
-16 -6 -19 -14 -5 -12 10 -15 78 -18 78 -3 85 -1 88 17 4 19 5 19 12 -2 4 -13
15 -23 24 -23 14 0 14 -2 1 -10 -9 -6 -17 -5 -21 2 -5 7 -8 7 -13 0 -4 -6 -12
-9 -19 -7 -13 4 -82 11 -204 22 -55 4 -73 3 -73 -7 0 -7 -8 -10 -19 -7 -10 2
-25 1 -32 -3 -7 -5 32 -9 87 -10 54 -1 160 -5 234 -10 85 -5 7 -6 -215 -2
-274 4 -352 8 -363 19 -11 11 -10 13 5 13 11 0 24 5 31 12 9 9 19 7 42 -10 23
-18 41 -22 92 -20 l63 1 -67 6 c-108 10 -92 23 25 19 l107 -3 0 27 c0 15 -4
30 -10 33 -6 4 -10 -5 -10 -19 0 -26 -14 -33 -36 -18 -9 5 -9 39 -2 127 5 66
11 149 14 185 7 104 16 160 25 160 5 0 10 -24 11 -52z m2718 26 c91 -9 167
-18 170 -21 3 -3 -26 -3 -65 1 -38 4 -100 9 -136 13 l-66 6 5 -242 c3 -168 1
-241 -6 -241 -6 0 -13 3 -15 8 -3 4 -6 112 -8 239 -3 168 -7 233 -16 233 -6 0
-9 -8 -7 -17 8 -33 9 -413 2 -413 -9 0 -9 -6 -17 240 l-6 195 -47 3 c-27 2
-48 8 -48 13 0 6 20 7 48 4 26 -3 121 -12 212 -21z m370 5 c10 -7 11 -12 4
-15 -8 -4 -9 -17 -2 -46 5 -23 7 -47 4 -53 -2 -7 1 -18 7 -24 8 -8 8 -14 -1
-23 -7 -7 -12 -19 -12 -27 1 -12 4 -11 13 4 10 17 13 11 18 -50 l5 -70 2 93
c3 153 17 103 18 -66 1 -91 -2 -134 -5 -102 -7 53 -7 54 -14 20 -4 -19 -8 -55
-10 -80 -3 -33 -4 -26 -6 25 -1 39 -6 88 -10 110 -7 31 -9 17 -10 -68 l-1
-108 -37 3 c-37 3 -38 4 -45 53 -3 28 -7 137 -7 243 l-1 192 38 0 c20 0 44 -5
52 -11z m-682 -241 l-3 -243 -47 -3 -48 -3 0 93 c0 51 -5 100 -11 108 -7 11
-9 -16 -4 -92 4 -74 3 -108 -4 -108 -8 0 -11 75 -10 238 1 134 4 226 9 212 8
-24 8 -23 9 8 l1 32 56 0 56 0 -4 -242z m2365 222 c-4 -16 -2 -19 11 -14 9 3
16 12 16 20 0 16 43 18 153 7 63 -6 67 -7 67 -31 l0 -25 -97 6 c-54 4 -162 7
-240 7 l-143 0 0 25 0 25 119 0 c114 0 119 -1 114 -20z m-7838 -245 c0 -246
-1 -256 -19 -253 -24 4 -23 -5 -26 249 -3 255 -4 241 18 237 9 -2 16 3 15 10
-2 6 0 12 5 12 4 0 7 -115 7 -255z m4773 18 l-3 -228 -24 -3 c-13 -2 -27 0
-32 5 -4 4 -9 63 -10 131 -2 67 -7 122 -11 122 -4 0 -7 25 -7 55 1 39 6 55 15
55 8 0 14 5 14 10 0 6 -7 10 -15 10 -10 0 -15 10 -15 29 0 31 11 38 63 40 l27
1 -2 -227z m1790 -7 c2 -173 0 -217 -10 -214 -10 4 -14 52 -16 194 -1 103 -6
192 -10 196 -4 4 -6 -36 -4 -90 2 -53 -1 -124 -6 -157 -8 -52 -10 -39 -11 97
-1 136 1 161 16 178 10 11 22 19 28 17 6 -2 11 -84 13 -221z m-1526 164 c4 0
8 -9 8 -21 0 -11 3 -18 8 -15 10 6 40 -17 42 -34 6 -42 -1 -80 -15 -80 -12 0
-15 -16 -15 -85 0 -67 3 -87 15 -91 9 -4 15 -19 15 -40 0 -31 -3 -34 -29 -34
-25 0 -29 4 -26 20 2 13 0 18 -7 14 -7 -5 -9 5 -6 30 2 20 0 36 -5 36 -5 0 -7
-23 -5 -50 3 -50 -6 -62 -30 -38 -15 15 -16 32 -2 23 6 -4 10 29 11 92 1 94 3
170 9 278 2 47 3 48 13 23 6 -16 14 -28 19 -28z m-5211 18 c14 -15 19 -17 20
-7 5 48 17 -133 18 -274 1 -167 1 -168 -21 -165 -26 4 -25 -5 -32 247 -4 149
-9 207 -18 213 -10 6 -10 8 1 8 7 0 22 -10 32 -22z m5045 -85 c-3 -54 -5 -149
-6 -210 0 -106 -1 -113 -20 -113 -19 0 -20 7 -20 210 l0 210 26 0 26 0 -6 -97z
m-2617 -113 c15 -223 16 -207 -19 -208 l-30 -1 0 69 c0 38 5 72 10 75 6 3 10
11 10 16 0 6 -4 8 -9 4 -13 -8 -19 17 -27 122 -6 91 -6 91 17 95 13 2 27 2 31
-1 3 -4 11 -80 17 -171z m6279 -98 c-3 -114 -6 -137 -18 -137 -12 0 -15 14
-16 60 -2 117 1 111 -43 107 l-39 -4 -3 53 c-5 62 10 83 52 77 25 -4 29 -1 35
26 20 94 36 5 32 -182z m-1680 -330 c3 -18 -1 -23 -15 -22 -37 4 -53 0 -53
-15 0 -7 7 -18 15 -23 13 -7 15 -30 13 -143 l-3 -134 -22 38 c-25 42 -27 70
-16 230 l6 98 36 -3 c29 -2 37 -8 39 -26z m-4163 -22 c3 -10 2 -27 -3 -37 -5
-10 -10 -138 -11 -285 l-3 -268 24 0 23 0 -3 305 -3 305 36 0 c30 0 35 -4 41
-27 10 -49 16 -61 21 -40 3 9 11 17 19 17 11 0 14 -27 15 -147 1 -82 5 -206 8
-278 l8 -130 4 125 c2 69 2 184 0 256 -2 90 1 138 9 154 23 42 30 0 31 -185 0
-99 4 -218 8 -265 8 -85 8 -84 11 55 1 77 2 194 1 260 -2 112 9 173 23 135 3
-8 7 -132 8 -275 l3 -260 193 -2 193 -2 -5 127 c-4 100 -3 112 4 57 4 -38 9
-96 11 -127 l2 -58 86 0 c48 0 80 4 73 8 -10 7 -10 15 -2 36 13 35 13 39 -2
33 -9 -3 -14 12 -16 52 -2 31 -5 70 -7 86 -14 114 -17 195 -6 195 6 0 11 7 11
17 0 9 2 14 5 11 3 -3 8 -41 11 -84 3 -43 12 -137 20 -207 8 -71 11 -133 8
-138 -3 -5 0 -9 5 -9 6 0 11 12 11 28 0 29 -16 211 -26 301 -7 63 10 63 20 -1
4 -23 11 -47 15 -53 7 -8 31 -206 31 -258 0 -9 6 -17 13 -17 9 0 13 10 11 28
-2 15 -8 76 -15 135 -17 159 -5 141 16 -24 l19 -142 574 7 c518 6 576 5 592
-9 10 -9 16 -24 13 -35 -5 -18 -46 -18 -1284 -16 -703 1 -1282 5 -1285 9 -4 4
11 7 34 7 22 0 44 5 47 11 10 16 -4 24 -17 11 -15 -15 -32 -16 -23 -2 4 6 -12
10 -39 10 -34 0 -46 -4 -46 -15 0 -8 8 -16 18 -17 38 -3 -96 -13 -140 -10 -37
3 -48 8 -47 20 0 11 2 12 6 5 2 -7 11 -13 19 -13 9 0 12 5 9 10 -3 6 -1 10 4
10 6 0 11 -4 11 -10 0 -5 8 -10 18 -10 10 0 19 7 19 15 0 11 -12 15 -41 16
-23 1 -45 1 -50 0 -13 -3 -524 1 -561 4 -16 1 -36 3 -42 3 -10 2 -13 40 -13
155 0 171 7 227 26 227 18 0 44 40 44 67 0 14 6 23 15 23 14 0 15 -28 9 -235
l-7 -235 36 0 37 0 0 103 c0 157 12 357 22 357 4 0 8 -11 8 -24 0 -14 5 -28
10 -31 6 -4 10 7 10 24 0 17 5 31 11 31 7 0 10 -70 7 -230 l-3 -230 68 0 67 0
0 79 c0 46 5 83 11 86 7 5 10 -19 7 -79 l-3 -86 48 0 c35 0 47 4 47 15 0 8 5
15 11 15 6 0 9 7 5 15 -3 8 -1 15 4 15 6 0 10 -13 10 -30 l0 -30 60 0 c57 0
60 1 60 25 0 14 5 25 10 25 6 0 10 -12 10 -26 l0 -25 93 3 c62 2 92 7 92 15 0
6 4 15 9 20 5 5 7 -1 3 -14 -5 -23 -4 -23 99 -23 97 0 104 1 104 20 0 11 5 20
11 20 6 0 9 -9 6 -20 -5 -20 -2 -21 80 -18 l85 3 4 280 c3 154 7 290 9 303 7
27 31 29 40 2z m4459 -167 c-14 -352 -18 -406 -33 -411 -11 -4 -12 15 -7 104
3 60 9 191 12 292 5 150 9 182 21 182 12 0 13 -24 7 -167z m-2324 138 c0 -5 8
-7 18 -5 14 4 17 -2 19 -38 1 -24 5 -73 8 -110 4 -45 3 -68 -4 -68 -6 0 -10 3
-10 8 6 36 -3 152 -12 152 -6 0 -9 -30 -7 -85 2 -61 -1 -88 -10 -94 -9 -5 -11
-26 -6 -80 4 -45 10 -67 15 -59 6 10 9 8 10 -7 1 -11 3 -35 5 -52 3 -24 0 -33
-11 -33 -8 0 -15 -9 -15 -20 0 -11 7 -20 15 -20 20 0 19 -16 -1 -24 -9 -4 -18
-5 -20 -4 -4 5 -34 443 -34 500 0 41 3 48 20 48 11 0 20 -4 20 -9z m1424 -2
c3 -3 6 -126 7 -274 1 -228 -1 -270 -13 -273 -12 -2 -16 29 -21 185 -11 304
-10 372 8 369 8 -1 17 -4 19 -7z m-4376 -36 l3 -23 -174 0 c-96 0 -189 -3
-207 -6 -29 -6 -31 -5 -28 17 3 23 5 23 138 27 74 2 137 6 140 8 2 3 31 4 65
2 54 -3 60 -5 63 -25z m3126 0 c3 -16 8 -71 11 -123 4 -52 13 -158 21 -234 8
-77 12 -141 9 -144 -2 -2 -10 -2 -17 1 -10 3 -20 70 -36 233 -12 126 -22 244
-22 262 0 40 26 44 34 5z m3666 -14 c0 -15 5 -19 15 -15 8 3 15 2 15 -2 0 -4
9 -8 20 -9 11 -1 20 2 20 6 0 4 21 4 48 1 l47 -5 2 -172 c1 -164 0 -173 -18
-173 -10 0 -19 -7 -19 -15 0 -8 9 -15 20 -15 16 0 20 -7 20 -36 l0 -35 -45 3
-46 3 -5 100 c-3 55 -7 102 -10 104 -2 2 -4 -44 -4 -102 0 -95 -2 -107 -17
-108 -10 -1 -40 -2 -68 -3 l-50 -1 -6 85 c-3 50 -7 69 -8 45 -2 -22 -4 -44 -6
-50 -1 -5 -3 -27 -3 -47 l-2 -38 -65 0 -65 0 0 223 c0 122 -3 232 -6 244 -7
25 1 26 154 30 77 2 82 1 82 -18z m-7690 -35 c0 -15 6 -24 15 -24 13 0 15 -31
15 -220 0 -140 4 -220 10 -220 6 0 10 80 10 220 l0 220 34 0 35 0 -6 -220 c-6
-217 -5 -220 15 -220 19 0 20 8 27 118 9 164 12 167 16 12 2 -91 4 -111 6 -62
2 40 8 70 12 67 13 -7 19 63 17 207 -1 100 2 124 12 116 8 -7 12 -7 12 1 0 6
9 11 19 11 13 0 18 -6 15 -17 -2 -10 -5 -97 -8 -193 -3 -96 -5 -181 -6 -187 0
-7 -7 -13 -15 -13 -8 0 -15 -9 -15 -20 0 -11 7 -20 15 -20 8 0 15 -4 15 -10 0
-5 23 -10 52 -10 28 0 49 -3 46 -6 -3 -3 -120 -4 -259 -3 -140 0 -265 1 -279
0 -24 0 -25 0 -5 15 12 9 21 11 23 4 2 -5 30 -10 62 -10 62 0 74 9 63 50 -3
12 -1 25 5 29 9 5 20 188 21 359 1 39 5 61 11 57 6 -3 10 -17 10 -31z m350
-224 c0 -113 -4 -211 -9 -219 -6 -8 -16 -11 -31 -6 -22 7 -23 10 -16 89 3 44
6 145 6 223 l0 141 25 -11 25 -12 0 -205z m1360 -657 c0 -7 10 -14 23 -14 16
-1 18 -2 5 -6 -10 -2 -18 -12 -19 -21 0 -14 -2 -13 -8 3 -12 30 -18 -35 -18
-185 0 -123 0 -124 7 -40 l7 85 -1 -115 c-1 -112 0 -115 22 -118 15 -2 22 2
22 12 0 9 5 16 11 16 5 0 8 -4 5 -9 -4 -5 15 -14 41 -19 48 -11 73 0 73 30 0
10 3 9 10 -2 9 -13 10 -13 10 0 1 11 4 10 15 -4 8 -11 15 -17 15 -14 0 4 3 13
6 22 4 11 1 16 -10 16 -13 0 -16 13 -18 68 l-2 67 -3 -67 c-3 -56 -7 -68 -21
-68 -15 0 -17 15 -15 165 1 91 -1 165 -5 165 -5 0 -13 -5 -20 -12 -9 -9 -12
-7 -12 9 0 19 6 20 146 22 l146 2 -6 -28 c-3 -15 -8 -106 -12 -202 -5 -145 -4
-173 7 -169 11 4 15 43 20 172 4 92 8 169 11 171 2 2 9 1 15 -3 8 -5 10 -53 5
-171 -7 -164 1 -234 12 -99 8 112 15 318 9 318 -2 0 -13 -5 -24 -10 -15 -8
-19 -7 -19 4 0 7 12 15 28 17 15 2 215 3 445 1 380 -2 418 -4 413 -18 -4 -9
-2 -22 3 -28 4 -6 18 -81 31 -166 12 -85 24 -157 26 -159 6 -6 3 169 -4 275
l-7 91 125 7 c69 3 184 6 257 6 l132 0 -5 -199 c-5 -148 -3 -200 6 -206 6 -4
17 -2 23 4 6 6 22 11 36 11 22 0 23 1 8 13 -12 8 -14 16 -7 27 5 8 10 11 11 5
0 -5 5 1 9 15 7 21 8 19 9 -17 l1 -43 64 0 c62 0 65 -1 85 -34 42 -67 124 -62
-999 -62 -896 1 -1022 3 -1030 16 -8 12 -10 12 -10 1 0 -12 -118 -13 -797 -7
-439 3 -893 9 -1009 12 l-212 7 3 22 c1 16 -2 22 -11 18 -9 -3 -12 -14 -8 -27
l5 -21 -263 0 c-145 0 -269 4 -276 8 -7 5 -11 16 -10 25 2 10 -5 18 -17 20
-14 2 -16 0 -7 -6 7 -5 10 -16 6 -25 -4 -11 -1 -17 7 -17 7 0 10 -2 7 -5 -8
-9 -38 6 -32 16 3 5 -12 10 -33 10 -21 1 -30 3 -20 6 17 4 24 23 9 23 -10 0
-32 -22 -32 -32 0 -4 14 -8 31 -8 17 0 28 -4 24 -10 -9 -15 -61 -12 -74 4 -9
11 -9 16 0 21 18 12 -9 23 -47 20 -32 -3 -42 4 -27 18 3 4 13 1 21 -6 9 -7 13
-7 9 -1 -4 8 38 12 146 13 84 1 251 4 371 6 136 3 223 1 231 -5 8 -6 18 -5 30
3 16 12 17 31 16 205 -2 168 0 192 13 192 14 0 16 -19 16 -127 1 -133 18 -258
35 -258 6 0 11 19 13 43 3 39 5 42 32 42 16 0 31 -4 34 -9 3 -5 77 -8 164 -7
l158 1 0 -33 c0 -39 16 -52 67 -52 l37 0 0 179 c0 148 3 180 15 184 17 7 29
-8 21 -28 -3 -8 -1 -17 4 -20 11 -7 32 29 23 39 -3 3 -1 6 5 6 7 0 11 -10 9
-21 -1 -12 4 -24 12 -27 8 -3 11 0 7 7 -4 6 -2 19 4 28 9 15 11 15 7 2 -3 -9
0 -22 6 -28 16 -16 3 -23 -43 -23 -28 1 -40 -3 -37 -11 5 -15 69 -17 79 -3 5
7 8 7 8 -1 0 -7 7 -13 15 -13 8 0 15 7 15 15 0 8 -4 15 -9 15 -11 0 -24 31
-16 38 3 3 12 -3 20 -14 14 -18 14 -18 15 5 l0 24 138 -7 c75 -3 172 -9 215
-13 l77 -6 0 -66 0 -67 -65 -32 c-67 -33 -71 -39 -78 -112 l-3 -35 -220 -5
-219 -6 231 -2 c126 -1 288 -6 360 -12 193 -14 344 -18 338 -8 -3 4 -12 8 -20
8 -8 0 -14 7 -14 15 0 15 80 368 85 373 2 2 20 -1 42 -7 25 -7 39 -7 41 -1 2
6 37 9 80 9 43 -1 67 -4 55 -6 -13 -2 -23 -11 -23 -19 0 -8 -4 -14 -10 -14 -5
0 -10 7 -10 15 0 8 -9 15 -20 15 -19 0 -20 -7 -21 -117 -1 -65 -2 -149 -4
-186 -1 -37 2 -70 6 -73 5 -3 9 69 9 160 l0 166 25 0 25 0 0 -170 0 -170 40 0
40 0 0 208 c0 115 2 211 5 213 10 10 45 4 45 -8z m-1772 -11 c8 8 13 7 18 -6
4 -10 13 -15 24 -11 12 4 24 -2 33 -15 9 -14 17 -17 22 -11 14 23 32 -17 39
-86 6 -64 5 -72 -11 -76 -10 -3 28 -5 84 -6 62 -1 103 -5 105 -12 2 -7 12 -7
31 0 23 9 27 8 27 -7 0 -16 -16 -17 -197 -13 -109 1 -200 5 -202 7 -2 2 2 10
9 19 7 8 8 15 3 15 -5 0 -10 6 -10 13 0 6 -3 57 -7 112 -6 86 -5 98 7 83 10
-13 17 -14 25 -6z m4327 -387 c439 -6 512 -9 521 -18 8 -8 -925 2 -938 10 -24
14 -2 23 45 18 28 -3 196 -8 372 -10z m1906 -275 c1 -27 3 -54 4 -60 1 -5 3
-54 4 -107 1 -68 4 -93 11 -83 7 11 9 -1 9 -40 -2 -50 -2 -52 -9 -20 -6 30 -8
26 -9 -30 -1 -36 -2 -91 -3 -123 0 -81 -6 -97 -35 -97 -13 0 -21 4 -18 10 3 6
1 10 -4 10 -7 0 -12 31 -13 78 l-2 77 -3 -65 c-5 -100 -9 -110 -43 -110 -23 0
-31 5 -35 23 -2 12 -6 147 -7 300 l-3 277 37 0 38 0 3 -182 2 -183 3 188 2
187 35 0 35 0 1 -50z m-481 -29 c0 -10 -16 -112 -35 -227 -20 -115 -38 -231
-41 -259 -7 -59 -9 -64 -29 -61 -24 4 -29 15 -9 23 17 6 16 8 -6 13 -30 7 -31
-2 11 275 28 180 33 203 57 228 30 31 52 35 52 8z m-5495 -158 c0 -49 2 -154
4 -235 l3 -148 143 0 142 0 -2 25 c-3 24 -1 25 51 25 51 0 54 -1 54 -25 0 -16
6 -25 15 -25 14 0 19 11 16 38 -1 6 6 12 16 12 11 0 14 3 7 8 -18 11 -23 40
-26 147 -2 85 0 100 14 103 18 3 22 -25 33 -213 3 -49 8 -91 11 -94 2 -2 11 4
19 15 10 13 13 36 10 74 -14 181 -15 209 -6 214 12 8 29 -145 31 -281 0 -14 6
-23 15 -23 8 0 15 9 15 20 0 11 4 20 9 20 6 0 6 12 0 32 -5 18 -9 81 -9 140 0
90 3 108 15 108 22 0 24 -9 27 -167 2 -78 7 -145 11 -150 12 -12 470 -15 462
-3 -3 6 -34 10 -68 10 -33 0 -57 4 -52 8 6 4 40 6 78 4 49 -3 67 -7 67 -18 0
-8 7 -14 16 -14 8 0 12 5 9 10 -4 6 18 10 60 10 67 0 135 20 135 40 0 7 -16 9
-47 6 -27 -3 -42 -3 -34 0 11 5 11 8 0 15 -12 8 -11 11 1 20 12 9 13 12 1 16
-11 5 -11 7 0 15 12 8 12 10 0 15 -11 5 -11 7 0 14 9 5 14 27 14 59 0 27 3 50
6 50 7 0 20 -97 19 -142 -1 -58 16 -25 28 55 9 55 20 89 33 102 10 11 19 14
19 8 0 -18 40 -3 41 16 1 14 2 13 6 -1 2 -10 11 -18 18 -18 11 0 15 -25 17
-117 l3 -116 42 -4 c56 -5 62 8 65 143 4 155 22 135 29 -33 3 -76 7 -139 8
-140 9 -17 51 46 51 77 0 10 -5 22 -11 26 -8 5 -9 29 -4 78 11 104 11 105 17
111 3 3 7 -48 10 -114 2 -66 7 -123 10 -126 3 -3 47 -9 96 -13 l91 -8 -5 98
c-2 54 -6 143 -9 197 l-4 99 69 4 69 3 4 -60 c9 -127 29 -330 33 -334 2 -2 33
-4 69 -5 35 0 65 -4 65 -7 0 -4 17 -3 38 0 59 10 82 3 82 -25 0 -29 11 -30 41
-3 13 11 19 18 12 15 -6 -4 -14 -2 -18 4 -4 6 6 10 24 10 26 0 31 -4 31 -25 0
-18 4 -23 15 -19 10 4 13 13 10 25 -5 14 -1 19 14 19 16 0 21 -6 21 -25 0 -14
5 -25 11 -25 6 0 9 10 7 23 -4 20 0 23 31 26 19 1 38 6 41 12 4 5 5 63 2 128
l-4 118 76 -1 c42 -1 77 -3 77 -6 11 -41 3 -63 -27 -78 -25 -12 -40 -31 -63
-84 -17 -37 -31 -72 -31 -77 0 -10 74 -21 148 -21 51 0 54 -1 36 -14 -17 -13
-5 -15 111 -14 134 1 124 14 -15 19 -36 2 5 6 90 9 85 3 163 9 173 14 12 6 17
4 17 -8 0 -9 5 -16 10 -16 6 0 10 7 10 15 0 8 7 15 15 15 8 0 15 -7 15 -15 0
-8 5 -15 11 -15 6 0 17 7 25 15 22 22 55 20 47 -2 -6 -17 -5 -17 14 0 15 13
22 15 25 6 3 -9 9 -9 25 0 12 6 37 11 55 10 27 0 30 -2 13 -9 -19 -8 -19 -9 3
-9 12 -1 22 4 22 9 0 18 57 11 64 -7 5 -12 9 -14 14 -6 4 6 18 13 32 14 21 3
25 0 24 -18 -1 -19 4 -23 28 -23 27 0 28 1 14 16 -36 36 23 48 61 12 13 -12
23 -16 23 -10 0 7 9 12 20 12 13 0 18 -5 14 -15 -4 -8 -12 -15 -19 -15 -10 0
-12 -9 -8 -32 l5 -33 -614 0 -613 0 -3 -32 c-3 -27 -7 -33 -27 -33 -22 0 -24
3 -18 30 3 17 1 30 -4 30 -6 0 -10 -11 -10 -25 0 -14 -2 -27 -4 -28 -2 -2 -70
-1 -151 1 l-148 4 0 29 c0 16 -4 29 -10 29 -5 0 -10 -13 -10 -30 0 -20 -5 -30
-15 -30 -10 0 -15 10 -15 30 l0 30 -872 2 c-480 2 -1308 2 -1840 0 -537 -1
-968 1 -968 6 0 5 32 8 70 6 59 -2 70 1 70 15 0 14 -2 14 -10 1 -8 -12 -10
-12 -11 5 0 15 -2 16 -7 5 -5 -12 -17 -14 -52 -9 -41 5 -41 9 0 13 8 0 14 6
13 13 -2 6 -4 48 -7 92 -3 71 -1 81 13 81 9 0 21 -4 27 -10 5 -5 15 -6 24 0
12 8 12 10 -3 16 -12 4 -15 13 -11 31 6 23 4 24 -22 21 -28 -3 -29 -1 -32 43
-3 43 -5 46 -27 41 -24 -4 -25 -7 -25 -93 0 -49 -4 -89 -8 -89 -17 0 -22 13
-11 27 6 7 7 13 2 13 -5 0 -9 10 -9 23 -1 46 -16 86 -30 80 -20 -8 -17 14 4
26 15 9 13 10 -10 11 -23 0 -27 5 -31 33 -3 25 -4 22 -5 -14 -3 -71 -52 -97
-52 -27 0 26 -2 28 -15 18 -8 -6 -19 -9 -24 -6 -5 4 -12 2 -16 -4 -15 -24 -35
-9 -36 28 l-2 37 -6 -35 c-9 -51 -35 -47 -39 6 l-3 42 57 1 c31 0 59 3 62 6 3
3 -38 5 -91 5 -86 0 -97 2 -97 18 0 15 15 17 170 17 151 0 171 -2 176 -17 6
-19 63 -27 172 -26 34 1 66 -2 69 -6 4 -4 9 -52 11 -107 l4 -100 -26 7 c-18 4
-26 2 -26 -7 0 -9 -5 -6 -12 5 -8 15 -8 21 0 24 14 4 16 32 3 32 -5 0 -11 9
-14 21 -4 16 -3 18 9 8 11 -9 14 -8 14 7 0 14 -7 19 -25 19 -23 0 -25 -3 -25
-47 0 -27 -5 -48 -10 -48 -6 0 -1 -13 10 -28 21 -28 38 -32 73 -17 22 9 37 -3
18 -14 -8 -5 -11 -17 -7 -29 6 -17 3 -19 -15 -15 -21 6 -22 4 -15 -48 4 -29 9
-55 10 -57 6 -6 620 -2 714 5 78 5 92 8 88 22 -4 15 -22 312 -20 337 1 6 -11
8 -28 6 -15 -2 -35 1 -42 8 -11 8 -20 9 -35 0 -17 -9 -21 -8 -21 5 0 8 -4 15
-10 15 -5 0 -10 -9 -10 -19 0 -11 -5 -23 -10 -26 -6 -4 -9 -14 -8 -23 2 -10
-4 -17 -12 -17 -11 0 -16 13 -18 49 l-3 48 76 -4 c53 -2 79 -8 85 -18 8 -13
10 -12 10 3 0 16 10 18 100 16 55 -1 100 -6 100 -11 0 -5 6 -8 13 -7 22 4 47
-13 47 -32 0 -12 5 -16 15 -13 8 4 16 5 16 3 1 -2 4 -73 8 -156 l6 -153 33 31
c18 17 31 37 29 43 -3 7 -2 28 3 47 l8 34 1 -37 c2 -65 16 -88 53 -87 18 1 26
3 18 5 -12 4 -15 25 -15 112 0 88 3 107 15 107 12 0 17 -27 24 -142 l9 -143
58 0 c32 0 61 5 64 10 3 6 -2 10 -12 10 -15 0 -16 2 -3 10 13 8 12 10 -2 10
-16 0 -16 2 2 20 11 11 21 30 21 43 1 12 3 60 5 107 2 47 6 124 10 173 l5 87
32 0 32 0 0 -87z m369 18 c15 -157 25 -324 20 -332 -7 -12 -81 -12 -89 0 -3 6
-8 60 -12 120 -5 99 -4 113 12 131 10 11 24 20 30 20 17 0 26 26 19 55 -5 22
-41 45 -69 45 -15 0 -20 12 -9 23 4 3 26 6 49 5 l43 0 6 -67z m6913 53 c-3 -3
1 -27 8 -52 7 -26 16 -77 19 -114 6 -61 5 -68 -12 -68 -11 0 -18 8 -20 23 -1
12 -6 45 -12 72 -8 46 -9 44 -4 -22 4 -62 3 -73 -10 -73 -11 0 -16 11 -18 38
l-1 37 -4 -37 c-4 -36 -6 -38 -38 -38 -37 0 -39 4 -50 115 -3 33 -8 75 -11 93
l-5 32 82 0 c45 0 80 -3 76 -6z m-8549 -36 c3 -15 -4 -18 -34 -18 -21 0 -34
-3 -30 -7 4 -4 27 -6 51 -4 l45 3 0 -46 0 -46 -45 0 -46 0 2 -70 c1 -39 -1
-73 -5 -77 -3 -3 -6 19 -6 51 0 36 -4 55 -10 51 -5 -3 -10 1 -10 9 0 8 -10 16
-22 18 -20 3 -23 10 -26 59 l-3 56 31 -5 c27 -4 30 -2 30 22 0 25 3 27 37 24
27 -2 39 -8 41 -20z m218 8 c14 -11 22 -12 33 -3 10 9 16 7 26 -6 8 -11 26
-17 49 -17 l36 0 0 -50 c0 -47 -2 -50 -25 -50 -23 0 -25 4 -25 45 0 46 -4 51
-30 35 -11 -7 -17 -5 -22 8 -5 14 -7 13 -7 -6 -1 -12 -7 -25 -15 -28 -9 -4
-13 -15 -10 -31 3 -17 1 -24 -8 -21 -7 3 -14 24 -16 50 -3 40 -6 46 -28 51
-13 2 -27 1 -29 -4 -3 -4 5 -9 17 -11 19 -2 24 -10 26 -47 3 -41 2 -43 -20
-38 -22 6 -23 3 -23 -40 0 -29 -5 -48 -13 -51 -7 -2 -11 2 -10 9 2 7 -4 14
-12 15 -54 5 -60 13 -60 85 l0 69 35 0 c20 0 35 5 35 11 0 17 31 38 56 39 11
0 29 -6 40 -14z m6384 6 c0 -25 -32 -230 -49 -310 -10 -52 -16 -103 -14 -113
5 -19 1 -20 -70 -18 -62 3 -77 6 -80 20 -4 14 41 212 89 394 l8 30 4 -27 c5
-43 33 -44 67 -4 29 35 45 44 45 28z m1104 -74 c3 -35 8 -118 11 -185 l5 -123
-29 0 -29 0 -6 108 c-4 59 -9 142 -12 185 l-5 77 30 0 c29 0 29 -1 35 -62z
m-2582 8 c22 8 42 14 44 14 2 0 4 -14 4 -31 0 -28 2 -30 33 -27 18 2 31 -1 30
-7 -1 -6 -4 -24 -7 -40 -4 -17 2 -7 12 20 11 29 26 51 35 53 10 2 17 -1 17 -7
0 -6 6 -8 13 -5 8 3 20 -2 27 -11 9 -11 16 -12 26 -4 7 6 24 9 37 7 l25 -3
-34 -115 c-18 -63 -33 -122 -33 -130 1 -8 5 1 11 20 5 19 13 37 16 40 4 3 14
19 22 35 8 17 16 34 19 39 2 5 -1 6 -7 2 -17 -10 -15 6 5 34 10 14 16 25 14
25 -2 0 -1 10 3 23 8 23 21 29 31 12 3 -5 -16 -68 -41 -140 -42 -116 -50 -130
-71 -130 -25 0 -29 -10 -11 -28 9 -9 -26 -12 -161 -12 -112 0 -170 3 -166 10
3 6 15 10 26 10 27 0 24 17 -5 24 -18 4 -23 11 -19 26 4 16 0 20 -18 20 -48 0
-50 8 -24 125 28 124 41 159 55 150 5 -3 18 -2 27 4 13 7 19 6 21 -4 3 -12 10
-11 44 1z m456 -181 c-38 -99 -58 -141 -70 -143 -13 -3 -18 3 -18 20 -1 21 -2
20 -14 -7 -7 -17 -15 -25 -19 -18 -4 6 14 64 39 129 64 169 63 166 74 159 6
-3 10 -2 10 3 0 5 10 14 23 19 36 17 32 -10 -25 -162z m308 160 c4 -8 17 -15
31 -15 22 0 24 -3 21 -37 -2 -21 -5 -40 -8 -43 -14 -14 -60 -118 -60 -135 0
-18 1 -18 16 -3 9 9 17 28 17 43 0 14 2 23 5 20 3 -3 20 29 38 72 19 44 39 79
48 81 21 4 20 -2 -4 -67 -12 -29 -19 -55 -17 -58 2 -2 15 25 27 59 22 60 45
97 54 87 5 -5 -37 -128 -81 -238 l-29 -74 -70 -2 c-38 -1 -77 2 -86 6 -10 6
-19 5 -23 -1 -3 -6 -17 -7 -31 -4 -20 5 -24 2 -24 -15 0 -14 -6 -21 -20 -21
-11 0 -22 0 -25 0 -3 0 -4 3 -2 7 1 5 7 7 14 5 15 -3 26 15 14 22 -5 3 -20 7
-34 8 l-25 2 49 140 c27 77 54 143 61 148 7 4 21 6 31 4 10 -2 30 2 45 10 35
18 61 18 68 -1z m318 -22 c-3 -10 -20 -79 -38 -153 l-34 -135 -31 -1 c-39 -2
-39 10 -5 82 14 30 24 62 22 71 -2 9 -15 -15 -29 -53 -15 -38 -30 -78 -34 -89
-5 -11 -7 -26 -6 -34 1 -7 -4 -11 -11 -9 -7 3 -13 11 -13 18 0 7 -9 16 -20 21
l-20 8 20 0 c16 1 29 26 71 139 50 135 51 137 82 137 17 1 34 4 38 8 11 11 13
9 8 -10z m-4127 -449 c3 -8 2 -19 -3 -24 -5 -5 -93 -6 -196 -3 -174 6 -188 7
-188 24 0 18 12 19 190 19 164 0 191 -2 197 -16z m863 -121 l0 -26 -112 6
c-62 4 -150 7 -195 7 -76 0 -83 2 -83 20 0 19 7 20 195 20 l195 0 0 -27z
m-946 -88 c2 -27 12 -117 21 -198 9 -82 14 -151 10 -155 -6 -6 -54 -7 -202 -3
-50 1 -46 -9 -68 211 -20 205 -21 190 18 190 l34 0 12 -127 c7 -70 15 -130 18
-133 3 -3 3 24 -1 60 -3 36 -9 95 -13 132 l-6 67 34 3 c19 2 57 3 86 3 l52 0
5 -50z m-314 -7 c6 -24 16 -61 21 -83 6 -22 24 -89 41 -148 34 -121 32 -129
-28 -131 -37 -1 -38 0 -51 49 -7 28 -18 77 -23 110 -6 33 -15 85 -21 115 -5
30 -11 63 -12 72 -2 10 -7 21 -11 25 -6 6 42 30 66 32 4 1 12 -18 18 -41z
m1179 5 l91 -6 -2 -29 -2 -28 -126 1 c-69 1 -156 4 -195 8 -67 6 -70 7 -73 34
l-3 27 109 0 c60 0 150 -3 201 -7z m-1611 -249 c46 -92 82 -168 80 -170 -2 -2
-29 -7 -61 -12 -39 -6 -60 -6 -66 2 -4 6 -22 47 -39 91 -16 44 -46 117 -65
162 -38 89 -37 91 28 92 l40 1 83 -166z m2192 152 c121 0 220 2 220 6 0 3 11
1 24 -5 38 -18 20 -28 -40 -21 l-54 7 -2 -109 c-1 -60 -3 -88 -5 -61 -2 26 -8
47 -12 47 -5 0 -8 27 -7 60 l3 60 -54 0 c-29 0 -52 -3 -52 -7 4 -26 -2 -73
-10 -73 -12 0 -20 57 -9 68 5 5 -16 10 -45 11 l-53 2 1 -41 c1 -22 -2 -40 -7
-40 -7 0 -12 31 -11 68 1 8 -21 12 -78 12 -43 0 -82 1 -86 3 -5 1 -11 -18 -14
-43 -6 -44 -9 -38 -15 27 -2 29 1 32 29 35 18 2 38 2 44 0 7 -2 112 -5 233 -6z
m-4170 -120 c0 -35 3 -91 6 -125 6 -50 10 -61 25 -61 10 0 21 -5 24 -10 4 -7
-3 -9 -19 -6 -24 4 -26 2 -26 -30 0 -35 0 -35 -42 -32 -38 3 -43 6 -43 28 0
15 -7 26 -17 28 -14 3 -16 21 -16 130 0 146 4 143 13 -10 4 -60 10 -108 15
-108 4 0 5 58 2 129 l-5 130 34 3 c19 2 37 2 42 0 4 -2 7 -32 7 -66z m6549
-208 c22 -69 18 -72 -116 -76 -126 -4 -162 4 -162 36 0 9 -3 29 -7 45 l-6 27
140 0 140 0 11 -32z m188 -136 c114 -2 132 -4 135 -19 3 -15 5 -15 18 -1 17
16 39 19 88 12 31 -5 32 -6 32 -57 0 -29 -3 -103 -7 -164 -6 -110 -7 -113 -30
-113 -22 0 -23 4 -25 73 l-2 72 -6 -70 c-4 -38 -7 -60 -8 -47 -1 12 -6 22 -11
22 -5 0 -7 -10 -5 -22 4 -21 4 -22 -5 -3 -5 11 -10 53 -10 93 -1 66 1 74 19
79 20 5 29 33 10 33 -5 0 -10 -4 -10 -10 0 -5 -4 -10 -10 -10 -5 0 -10 20 -10
45 l0 45 -87 1 c-49 0 -134 0 -190 -1 -83 -1 -105 2 -122 16 -36 31 -46 30
236 26z m-735 -29 c5 -2 8 -15 8 -29 l0 -24 -151 0 -151 0 6 23 c3 12 6 28 6
36 0 11 24 12 137 6 76 -4 141 -9 145 -12z m1683 -85 c2 -13 6 -41 7 -63 3
-39 4 -40 41 -40 43 1 45 -3 50 -100 3 -55 3 -53 5 18 2 62 5 77 18 77 10 0
12 -5 7 -12 -4 -7 -7 -58 -6 -113 2 -93 1 -98 -12 -70 -12 26 -21 27 -16 1 1
-5 -4 -13 -11 -18 -11 -6 -10 -10 1 -17 11 -7 5 -11 -22 -16 -32 -6 -37 -11
-36 -34 1 -14 5 -37 9 -51 8 -25 8 -25 10 5 1 17 2 36 1 42 -1 7 2 13 8 13 17
0 41 -12 41 -21 0 -4 -7 -6 -15 -3 -11 5 -15 -1 -15 -24 0 -17 6 -33 13 -35
18 -8 -13 -28 -33 -22 -8 3 -6 -2 5 -10 12 -10 21 -12 23 -5 2 5 10 10 18 10
9 0 14 -13 16 -40 0 -22 1 -45 2 -52 1 -6 -11 -13 -26 -15 -25 -3 -28 -1 -29
29 -1 18 -1 39 0 46 1 6 -3 12 -9 12 -6 0 -10 -23 -10 -55 0 -51 -2 -55 -23
-55 -20 0 -23 5 -23 33 0 17 -5 106 -11 197 -7 91 -15 220 -19 288 -6 119 -6
122 15 122 13 0 22 -8 26 -22z m1675 -160 c8 -283 6 -461 -6 -465 -21 -7 -24
39 -24 335 0 228 3 292 13 292 9 0 13 -41 17 -162z m42 -79 c7 -4 13 -70 17
-175 7 -184 5 -214 -14 -214 -16 0 -26 183 -23 439 2 140 3 162 5 76 2 -73 8
-122 15 -126z m133 111 c10 -58 19 -116 20 -130 1 -14 5 -49 9 -77 6 -38 5
-53 -4 -53 -6 0 -9 -4 -6 -8 2 -4 1 -14 -3 -21 -5 -8 -11 2 -15 29 -3 23 -14
52 -22 66 -13 19 -14 27 -4 39 10 12 10 15 0 15 -7 0 -18 8 -25 17 -10 14 -10
-3 1 -72 24 -153 34 -190 54 -208 14 -11 20 -29 19 -54 0 -21 -3 -32 -6 -25
-2 6 -9 12 -14 12 -6 0 -7 -5 -4 -10 3 -6 0 -10 -8 -10 -20 0 -50 37 -44 54 6
14 -28 246 -40 276 -4 8 -7 33 -8 55 -1 23 -5 51 -9 63 -6 18 -3 22 13 22 11
0 22 -9 26 -20 3 -11 11 -20 17 -20 14 0 4 90 -11 99 -16 10 -2 79 18 83 23 5
26 -4 46 -122z m-566 55 c16 5 17 -5 15 -122 -2 -71 -3 -194 -4 -275 0 -147 0
-148 -22 -147 -22 0 -22 1 -3 9 18 8 17 11 -2 9 -16 -1 -21 54 -22 256 -1 195
9 360 17 292 3 -21 8 -27 21 -22z m-789 -4 c0 -11 4 -21 10 -23 22 -7 23 -518
0 -518 -4 0 -10 80 -14 178 -3 97 -9 223 -13 280 -4 73 -3 102 6 102 6 0 11
-9 11 -19z m-135 -33 c3 -11 11 -70 14 -111 1 -5 6 -5 11 -2 6 3 10 -1 10 -10
0 -10 -5 -13 -12 -9 -8 5 -9 2 -5 -10 5 -14 3 -17 -8 -12 -12 4 -15 -3 -15
-32 0 -24 3 -32 9 -24 25 41 16 -121 -10 -170 -6 -10 -7 -28 -4 -38 4 -14 2
-20 -8 -20 -16 0 -21 47 -33 313 l-7 137 27 0 c15 0 29 -6 31 -12z m-2621 -52
c3 -16 6 -47 6 -70 0 -36 -3 -41 -22 -41 -13 -1 -33 -4 -45 -9 -21 -7 -23 -4
-24 26 -2 30 -2 31 -6 6 -2 -16 -9 -29 -14 -29 -5 -1 -13 -2 -18 -3 -5 0 -13
-5 -18 -9 -4 -5 3 -8 17 -6 14 2 27 -1 30 -6 6 -11 -53 -19 -84 -11 -19 5 -21
12 -20 88 1 46 2 85 3 88 0 3 43 5 95 5 l95 0 5 -29z m2046 -58 c0 -28 3 -48
7 -44 4 4 6 27 4 51 -1 25 2 45 7 45 6 0 13 -42 17 -92 10 -134 11 -318 3
-318 -5 0 -8 15 -9 33 0 17 -4 41 -9 52 -6 15 -9 6 -9 -32 -1 -44 -4 -53 -18
-52 -13 0 -14 2 -4 6 9 4 10 7 2 12 -7 5 -14 74 -18 199 -6 175 -5 192 10 192
14 0 17 -10 17 -52z m-3402 10 c-3 -23 -4 -23 -183 -23 -179 0 -180 0 -183 23
l-3 22 186 0 186 0 -3 -22z m3002 -38 c0 -5 8 -10 18 -10 14 0 15 2 2 10 -10
7 16 10 82 10 l97 0 -3 -45 c-2 -25 -7 -49 -11 -53 -4 -4 -6 14 -4 41 3 26 1
47 -3 47 -5 0 -8 -5 -8 -11 0 -5 -6 -7 -12 -3 -10 6 -10 4 0 -7 16 -18 15 -29
-3 -29 -8 0 -15 -4 -15 -10 0 -5 6 -10 13 -10 9 0 9 -2 -1 -9 -19 -11 -155
-14 -148 -3 3 5 30 8 61 7 31 -1 58 2 61 7 3 4 -7 9 -23 9 -15 1 -47 2 -70 3
-36 2 -43 -1 -43 -16 0 -10 -3 -17 -7 -17 -24 4 -75 -2 -69 -8 4 -4 28 -6 54
-5 l47 2 -34 -15 c-19 -9 -50 -14 -68 -13 -35 2 -62 23 -48 36 4 4 10 1 12 -5
5 -15 23 -18 23 -5 0 5 -10 14 -22 20 -20 9 -14 11 35 11 31 1 57 4 57 9 0 6
-31 7 -120 3 -20 -1 -22 -3 -10 -11 10 -6 11 -10 3 -10 -7 0 -13 -7 -13 -16 0
-8 5 -12 10 -9 16 10 12 -1 -6 -15 -13 -12 -15 -6 -13 58 l2 72 89 0 c52 0 88
-4 88 -10z m290 -62 c0 -35 3 -107 7 -161 l6 -97 -36 0 -37 0 0 125 c0 113 2
129 23 160 12 19 25 35 30 35 4 0 7 -28 7 -62z m-103 -111 c1 -18 3 -45 6 -62
2 -16 -1 -33 -7 -37 -8 -6 -7 -8 2 -8 18 0 15 -27 -5 -39 -10 -6 -12 -11 -5
-11 6 0 12 -6 12 -14 0 -7 7 -19 15 -26 8 -7 15 -19 15 -26 0 -11 -25 -14
-122 -14 l-123 0 -33 50 c-31 48 -34 50 -77 50 l-45 0 0 43 0 42 140 -1 c139
-1 167 4 133 26 -16 10 -16 11 4 7 13 -3 26 -1 29 4 3 5 -4 9 -16 9 -12 0 -18
4 -15 11 4 5 14 9 23 7 10 -2 26 4 36 14 24 22 30 16 33 -25z"/>
<path d="M4362 2710 l2 -195 3 168 c2 92 7 167 11 167 4 0 5 -57 3 -126 -3
-134 4 -218 20 -209 5 4 9 79 9 171 0 124 3 164 13 164 9 0 11 -39 9 -170 -2
-113 1 -170 8 -170 6 0 10 57 10 165 0 134 3 166 15 172 20 12 8 53 -16 53
-11 0 -19 -7 -19 -15 0 -8 -4 -15 -10 -15 -5 0 -10 7 -10 15 0 8 -7 15 -15 15
-8 0 -15 -6 -15 -12 0 -9 -4 -8 -10 2 -6 10 -9 -51 -8 -180z"/>
<path d="M4852 2708 c2 -142 6 -192 16 -196 9 -3 12 36 14 170 l1 173 7 -168
c4 -92 10 -170 13 -174 9 -8 9 245 0 328 -4 44 -9 57 -14 44 -7 -17 -8 -18 -8
-2 -1 9 -8 17 -16 17 -13 0 -15 -26 -13 -192z"/>
<path d="M4960 2842 c0 -32 3 -120 7 -195 l6 -137 29 0 c21 0 28 5 28 20 0 21
-36 258 -45 298 -4 17 -1 22 15 22 11 0 20 7 20 15 0 18 -12 19 -28 3 -9 -9
-12 -8 -12 4 0 9 -4 20 -10 23 -6 4 -10 -16 -10 -53z"/>
<path d="M3468 2870 c-7 -16 -88 -342 -88 -353 0 -9 81 -29 89 -22 7 8 14 290
9 350 -2 23 -6 34 -10 25z"/>
<path d="M2338 1213 c-21 -5 -21 -7 -7 -73 l11 -50 67 0 68 0 -10 53 c-5 28
-11 57 -12 63 -3 11 -83 16 -117 7z"/>
<path d="M2 408 c1 -227 3 -387 5 -354 4 52 6 58 24 53 10 -3 19 -2 19 2 0 3
34 5 75 3 78 -4 89 2 56 32 -14 12 -34 16 -80 15 -67 -2 -86 7 -75 36 7 17 24
17 315 10 l307 -7 8 24 c4 12 7 31 5 40 -2 16 35 45 45 35 8 -8 -7 -56 -21
-67 -17 -14 -8 -41 11 -33 21 8 17 -18 -7 -43 l-21 -22 43 -6 c24 -3 97 -12
162 -21 160 -20 159 -20 151 10 -6 24 -5 25 45 25 44 0 51 -3 51 -19 0 -12 -8
-21 -22 -24 -13 -2 25 -5 85 -6 l107 -1 0 24 c0 22 5 25 48 29 l47 3 -47 2
c-34 1 -48 6 -48 16 0 8 -8 17 -17 19 -14 4 -12 5 5 6 16 1 22 7 22 25 0 13 4
26 10 28 5 2 7 13 3 26 -4 19 -11 23 -36 20 -27 -3 -32 -8 -39 -38 -7 -28 -16
-103 -18 -143 0 -5 -5 -5 -10 -2 -6 4 -10 14 -9 23 4 46 0 52 -41 52 -29 0
-40 -4 -40 -15 0 -16 -52 -21 -84 -9 -26 10 -19 34 12 35 16 1 20 3 10 6 -27
7 -23 43 5 44 l22 0 -22 11 c-25 12 -31 43 -10 51 6 3 2 6 -10 6 -28 1 -31 28
-5 47 26 20 372 20 372 0 0 -8 -4 -18 -10 -21 -16 -10 -12 -35 6 -35 10 0 14
-7 12 -22 -2 -13 -9 -22 -16 -20 -9 1 -11 -2 -6 -10 10 -16 13 -48 4 -48 -3 0
-7 -21 -9 -47 -1 -26 -8 -51 -14 -55 -8 -5 -4 -8 11 -8 18 0 22 6 22 30 0 17
3 30 8 30 4 0 7 21 7 47 0 45 2 48 30 54 23 5 25 7 8 8 -16 1 -23 7 -23 21 0
17 7 20 49 20 45 0 48 -1 44 -24 -4 -17 -10 -22 -24 -19 -11 3 -19 0 -19 -6 0
-7 5 -9 10 -6 6 3 11 -4 11 -17 2 -27 2 -20 -7 -87 l-7 -52 44 3 c41 3 44 5
44 31 -1 18 4 27 15 27 13 0 15 -7 12 -31 -4 -29 -3 -30 29 -27 32 3 34 5 31
36 -1 17 1 31 5 31 20 -3 23 3 13 21 -16 29 -67 27 -73 -3 l-4 -22 -8 22 c-5
16 -17 23 -44 26 l-36 4 42 1 c36 2 40 5 36 22 -3 11 0 20 6 20 6 0 11 -9 11
-20 0 -16 7 -20 35 -20 29 0 35 4 33 18 -2 14 7 18 52 23 52 5 53 6 12 7 -42
2 -68 26 -44 41 5 3 8 18 5 34 -4 22 -11 27 -34 27 -22 0 -29 -5 -29 -19 0
-30 -19 -35 -26 -6 -5 21 -12 25 -45 25 -34 0 -39 -3 -39 -23 0 -21 -5 -24
-44 -25 -38 -2 -44 1 -50 20 -10 41 9 46 211 50 l191 5 -4 -56 c-5 -81 -4
-142 5 -196 1 -5 13 3 28 20 l26 29 -5 183 -5 183 24 0 c21 0 23 -5 24 -50 2
-63 2 -67 12 -76 4 -4 7 16 7 44 0 40 4 52 15 52 14 0 18 -27 18 -122 0 -10 3
-15 8 -13 4 3 10 -12 12 -32 2 -21 4 -5 5 35 1 47 -2 71 -8 67 -6 -3 -10 -1
-10 4 0 6 5 11 10 11 14 0 13 77 -1 86 -8 4 -7 9 2 15 8 5 17 9 20 9 3 0 9
-97 12 -216 4 -161 9 -219 18 -225 15 -9 36 0 23 10 -5 3 -10 25 -11 48 -1 32
2 43 13 43 8 0 14 -7 14 -16 0 -8 5 -12 10 -9 6 4 8 11 5 16 -4 5 -1 9 4 9 6
0 11 -9 11 -20 0 -11 -6 -20 -14 -20 -8 0 -13 -11 -12 -29 1 -28 4 -30 54 -36
30 -4 56 -5 58 -2 3 2 7 27 11 56 6 55 23 70 23 22 0 -16 4 -41 10 -55 8 -21
16 -26 45 -26 19 0 35 5 35 10 0 6 -6 10 -12 10 -8 1 -6 6 5 14 9 7 17 21 17
30 0 9 5 16 10 16 6 0 10 -18 10 -40 l0 -40 44 0 c44 0 44 0 44 36 0 55 20 66
28 15 l7 -42 103 6 c57 3 104 1 104 -3 0 -4 206 -8 458 -8 l457 1 3 170 c3
177 41 462 63 476 25 15 -41 19 -354 19 -402 -1 -1874 8 -2714 16 l-613 5 2
-413z m648 23 c5 -9 5 -23 -2 -34 -6 -12 -6 -22 -1 -26 17 -11 22 -38 10 -50
-9 -9 -7 -11 8 -5 20 7 20 6 1 -12 -13 -14 -20 -15 -23 -6 -3 8 -35 12 -111
12 -59 0 -102 4 -95 8 7 4 51 6 99 5 103 -3 123 4 97 34 -17 19 -32 20 -265
26 -146 3 -246 1 -242 -4 3 -5 0 -9 -5 -9 -6 0 -11 5 -11 10 0 6 -18 10 -40
10 -29 0 -40 4 -40 15 0 8 5 15 10 15 6 0 10 7 10 16 0 14 32 15 295 12 245
-2 297 -5 305 -17z"/>
<path d="M5288 777 c15 -18 6 -27 -31 -27 -24 0 -28 -3 -24 -20 3 -13 0 -20
-9 -20 -8 0 -14 6 -14 13 0 8 -4 7 -10 -3 -13 -20 -13 -123 0 -115 6 3 13 -1
16 -10 6 -14 9 -14 28 2 19 16 19 16 7 1 -12 -17 -9 -18 41 -18 37 0 55 4 56
13 8 108 11 138 16 146 3 5 22 11 42 13 29 3 38 0 45 -16 8 -19 9 -18 4 4 -2
14 -5 30 -5 36 0 6 -35 11 -87 13 -74 2 -85 0 -75 -12z"/>
</g>
</svg>
